<?xml version="1.0" encoding="UTF-8"?>

<svg xmlns="http://www.w3.org/2000/svg" viewBox="0 0 186 186" width="186" height="186">
  <g fill="#F4C54A">
    <rect x="52" y="30" width="18" height="66" rx="9"/>
    <rect x="66" y="22" width="18" height="74" rx="9"/>
    <rect x="80" y="28" width="18" height="70" rx="9"/>
    <rect x="94" y="20" width="18" height="76" rx="9"/>
    <rect x="108" y="30" width="18" height="66" rx="9"/>
  </g>
  <g fill="#E8B63F">
    <rect x="56" y="38" width="10" height="50" rx="5"/>
    <rect x="70" y="30" width="10" height="58" rx="5"/>
    <rect x="84" y="36" width="10" height="54" rx="5"/>
    <rect x="98" y="28" width="10" height="60" rx="5"/>
    <rect x="112" y="38" width="10" height="50" rx="5"/>
  </g>
  <g fill="#E85D5D">
    <path d="M53 84h80c5.523 0 10 4.477 10 10 0 1.147-.196 2.285-.579 3.366l-14.89 42C123.309 151.318 112 159 99.267 159H86.733c-12.733 0-24.042-7.682-28.264-19.634l-14.89-42A9.99 9.99 0 0 1 43 94c0-5.523 4.477-10 0-10z"/>
  </g>
  <g fill="#D94B4B">
    <path d="M61 92h64c4.418 0 8 3.582 8 8 0 .913-.156 1.82-.461 2.68l-10.795 30.664C118.686 142.03 110.47 148 101.227 148H84.773c-9.243 0-17.459-5.97-20.517-14.656l-10.795-30.664A7.978 7.978 0 0 1 53 100c0-4.418 3.582-8 8-8z"/>
    <path d="M56 84h74c2.209 0 4 1.791 4 4v6H52v-6c0-2.209 1.791-4 4-4z"/>
  </g>
</svg>
