<?xml version="1.0" encoding="UTF-8"?>

<svg xmlns="http://www.w3.org/2000/svg" viewBox="0 0 186 186" width="186" height="186">
  <g fill="#D9F0F7">
    <path d="M61 48h64c4.971 0 9 4.029 9 9 0 2.284-.86 4.485-2.409 6.167L122 144c-1.649 2.036-4.129 3.214-6.749 3.214H70.749c-2.62 0-5.1-1.178-6.749-3.214l-9.591-80.833A8.999 8.999 0 0 1 52 57c0-4.971 4.029-9 9-9z"/>
    <ellipse cx="93" cy="57" rx="41" ry="9"/>
  </g>
  <g fill="#BFE0EA">
    <path d="M67 61h52c2.314 0 4.18 1.965 4.058 4.276L115.5 135c-.219 2.609-2.4 4.611-5.018 4.611H75.518c-2.618 0-4.799-2.002-5.018-4.611l-7.558-69.724C62.82 62.965 64.686 61 67 61z"/>
    <ellipse cx="93" cy="59" rx="34" ry="6"/>
    <ellipse cx="93" cy="144" rx="24" ry="5"/>
  </g>
  <g fill="#F4C95D">
    <path d="M73 88c0-4.418 3.582-8 8-8h24c4.418 0 8 3.582 8 8v28c0 11.046-8.954 20-20 20s-20-8.954-20-20V88z"/>
    <path d="M119 42c8.769 0 15.965 6.39 17.24 14.8.304 2.008-1.258 3.8-3.289 3.8h-18.538c-4.528 0-8.2-3.672-8.2-8.2 0-5.743 4.656-10.4 10.4-10.4H119z"/>
  </g>
  <g fill="#E8B84C">
    <path d="M79 92h28v20c0 7.732-6.268 14-14 14s-14-6.268-14-14V92z"/>
    <path d="M118 46c5.661 0 10.473 3.633 12.246 8.7h-13.833c-1.934 0-3.5-1.566-3.5-3.5 0-2.872 2.328-5.2 5.2-5.2H118z"/>
  </g>
  <g fill="#7DC7D9">
    <path d="M104.904 57.992c1.548-1.548 4.058-1.548 5.606 0l11.498 11.498c1.548 1.548 1.548 4.058 0 5.606-1.548 1.548-4.058 1.548-5.606 0l-11.498-11.498c-1.548-1.548-1.548-4.058 0-5.606z"/>
  </g>
</svg>
