<?xml version="1.0" encoding="utf-8"?>

<svg width="800px" height="800px" viewBox="0 0 36 36" xmlns="http://www.w3.org/2000/svg" xmlns:xlink="http://www.w3.org/1999/xlink" aria-hidden="true" role="img" preserveAspectRatio="xMidYMid meet">
  <path fill="#CCD6DD" d="M5 23c0 4.418 5.82 8 13 8s13-3.582 13-8H5z"/>
  <path fill="#E1E8ED" d="M7 22c0 3.314 4.925 6 11 6s11-2.686 11-6H7z"/>
  <path fill="#F5F8FA" d="M9 21c0 2.209 4.029 4 9 4s9-1.791 9-4H9z"/>
  <path fill="#CCD6DD" d="M4 22.5c0 .553.447 1 1 1h26a1 1 0 1 0 0-2H5c-.553 0-1 .447-1 1z"/>
  <path fill="#99AAB5" d="M8 26.5c1.912 2.116 5.502 3.5 10 3.5s8.088-1.384 10-3.5H8z"/>
  <g fill="#CCD6DD">
    <path d="M11.234 15.547c-.392-.48-.642-1.051-.734-1.672c-.165-1.104.159-2.17.913-3.001a1 1 0 1 1 1.48 1.346c-.332.366-.47.812-.397 1.358c.043.327.178.635.39.891a1 1 0 1 1-1.652 1.078z"/>
    <path d="M17.253 13.879c-.488-.622-.768-1.355-.815-2.127c-.076-1.237.423-2.39 1.404-3.246a1 1 0 1 1 1.316 1.506c-.496.433-.73.944-.692 1.617c.026.43.18.832.463 1.193a1 1 0 1 1-1.676 1.057z"/>
    <path d="M23.081 15.547c-.392-.48-.642-1.051-.734-1.672c-.165-1.104.159-2.17.913-3.001a1 1 0 1 1 1.48 1.346c-.332.366-.47.812-.397 1.358c.043.327.178.635.39.891a1 1 0 1 1-1.652 1.078z"/>
  </g>
  <g fill="#E1E8ED">
    <path d="M12.02 14.814c-.216-.313-.344-.678-.397-1.064c-.095-.699.105-1.365.566-1.878a.6.6 0 1 1 .892.803c-.24.266-.332.57-.287.912c.028.217.118.422.262.598a.6.6 0 0 1-1.036.629z"/>
    <path d="M18.032 13.103c-.263-.409-.408-.882-.435-1.375c-.044-.809.275-1.547.9-2.078a.6.6 0 1 1 .777.914c-.361.307-.523.689-.497 1.1c.018.282.118.547.303.78a.6.6 0 1 1-1.048.659z"/>
    <path d="M23.867 14.814c-.216-.313-.344-.678-.397-1.064c-.095-.699.105-1.365.566-1.878a.6.6 0 0 1 .892.803c-.24.266-.332.57-.287.912c.028.217.118.422.262.598a.6.6 0 1 1-1.036.629z"/>
  </g>
</svg>
