<svg xmlns="http://www.w3.org/2000/svg" viewBox="0 0 64 64" fill="none">
  <path d="M17.5 40.8c2.7-1.1 8.1-2.2 14.5-2.2 6.5 0 11.9 1.1 14.6 2.2m-32.8 4c3.7 1.8 10.7 3 18.2 3 7.6 0 14.6-1.2 18.3-3" stroke="#000" stroke-width="1.1" stroke-linecap="round" stroke-linejoin="round"/>
  <path d="M20.2 42.7c1.1 4.6 5.8 7.8 11.8 7.8 6.1 0 10.8-3.2 11.8-7.8m-18.2-12c-1.7-2-.6-4.1.5-5.7 1-1.5 2.1-3 .8-4.8m5.2 11.2c-1.6-2.2-.2-4.2 1-5.9 1.1-1.5 2.2-2.9 1-4.7m4.3 9.9c-1.7-2-.6-4.1.5-5.7 1-1.5 2.1-3 .8-4.8" stroke="#000" stroke-width="1.1" stroke-linecap="round" stroke-linejoin="round"/>
</svg>
