<?xml version="1.0" encoding="utf-8"?>

<svg width="800px" height="800px" viewBox="0 0 36 36" xmlns="http://www.w3.org/2000/svg" xmlns:xlink="http://www.w3.org/1999/xlink" aria-hidden="true" role="img" preserveAspectRatio="xMidYMid meet">

<path fill="#CCD6DD" d="M6 22c0 4.418 5.373 8 12 8s12-3.582 12-8H6z"/>

<path fill="#E1E8ED" d="M7 21c0 3.866 4.925 7 11 7s11-3.134 11-7H7z"/>

<path fill="#99AAB5" d="M3 21c0 1.105.895 2 2 2h26c1.105 0 2-.895 2-2H3z"/>

<g fill="#99AAB5">
  <path d="M12.419 7.604c-.73 1.277-.552 2.411.275 3.356c.848.968.933 1.998.306 3.04c-.133.221-.076.529.128.686c.205.156.48.103.614-.118c.887-1.472.785-2.969-.301-4.209c-.622-.71-.767-1.487-.17-2.53c.131-.228.066-.534-.145-.684c-.211-.149-.489-.086-.607.139z"/>
  <path d="M17.419 5.604c-.73 1.277-.552 2.411.275 3.356c.848.968.933 1.998.306 3.04c-.133.221-.076.529.128.686c.205.156.48.103.614-.118c.887-1.472.785-2.969-.301-4.209c-.622-.71-.767-1.487-.17-2.53c.131-.228.066-.534-.145-.684c-.211-.149-.489-.086-.607.139z"/>
  <path d="M22.419 7.604c-.73 1.277-.552 2.411.275 3.356c.848.968.933 1.998.306 3.04c-.133.221-.076.529.128.686c.205.156.48.103.614-.118c.887-1.472.785-2.969-.301-4.209c-.622-.71-.767-1.487-.17-2.53c.131-.228.066-.534-.145-.684c-.211-.149-.489-.086-.607.139z"/>
</g>

</svg>
