<?xml version="1.0" encoding="UTF-8"?>

<svg xmlns="http://www.w3.org/2000/svg" viewBox="0 0 186 186" width="186" height="186">
  <g fill="#F4F1E8">
    <path d="M60 24h66c8.837 0 16 7.163 16 16v98l-10 12-12-10-12 10-12-10-12 10-12-10-12 10-10-12V40c0-8.837 7.163-16 16-16z"/>
  </g>
  <g fill="#E6DECF">
    <path d="M72 36h42c6.627 0 12 5.373 12 12v76l-6 7-8-6-8 6-8-6-8 6-8-6-8 6-6-7V48c0-6.627 5.373-12 12-12z"/>
  </g>
  <g fill="#B8AEA0">
    <path d="M72 58h42c4.418 0 8 3.582 8 8s-3.582 8-8 8H72c-4.418 0-8-3.582-8-8s3.582-8 8-8z"/>
    <path d="M72 84h34c4.418 0 8 3.582 8 8s-3.582 8-8 8H72c-4.418 0-8-3.582-8-8s3.582-8 8-8z"/>
    <path d="M72 110h28c4.418 0 8 3.582 8 8s-3.582 8-8 8H72c-4.418 0-8-3.582-8-8s3.582-8 8-8z"/>
  </g>
  <g fill="#D6CDBF">
    <path d="M60 24h66c8.837 0 16 7.163 16 16v6H44v-6c0-8.837 7.163-16 16-16z"/>
  </g>
</svg>
