<svg xmlns="http://www.w3.org/2000/svg" viewBox="0 0 444 444" width="444" height="444"><g fill="#E6E6E6"><path cx="18" cy="23.5" rx="12" ry="5.2" d="M370 289.833A148 64.133 0 0 1 222 353.967A148 64.133 0 0 1 74 289.833A148 64.133 0 0 1 370 289.833z"/></g><g fill="#CFCFCF"><path cx="18" cy="24" rx="8.7" ry="3.1" d="M329.3 296A107.3 38.233 0 0 1 222 334.233A107.3 38.233 0 0 1 114.7 296A107.3 38.233 0 0 1 329.3 296z"/></g><g fill="#F5F5F5"><path d="M222 222c-71.533 0 -129.5 24.667 -129.5 55.5S150.467 333 222 333s129.5 -24.667 129.5 -55.5S293.533 222 222 222m0 86.333c-51.8 0 -94.967 -14.8 -94.967 -33.3s43.167 -33.3 94.967 -33.3 94.967 14.8 94.967 33.3S273.8 308.333 222 308.333"/><path d="M138.133 251.6c9.867 -12.333 33.3 -22.2 61.667 -25.9q29.6 -3.7 59.2 0c28.367 3.7 51.8 13.567 61.667 25.9 -9.867 12.333 -33.3 22.2 -61.667 25.9q-29.6 3.7 -59.2 0c-28.367 -3.7 -51.8 -13.567 -61.667 -25.9"/></g><g fill="#F1ECD9"><path d="M143.067 255.3c11.1 -8.633 28.367 -14.8 49.333 -17.267q22.2 -1.85 44.4 0c14.8 1.233 28.367 4.933 39.467 9.867 -3.7 16.033 -22.2 28.367 -46.867 32.067q-22.2 3.7 -44.4 0c-22.2 -2.467 -39.467 -12.333 -41.933 -24.667"/></g><g fill="#7A4A2A"><path cx="21.4" cy="20.7" r="1.1" d="M277.5 255.3A13.567 13.567 0 0 1 263.933 268.867A13.567 13.567 0 0 1 250.367 255.3A13.567 13.567 0 0 1 277.5 255.3z"/><path cx="23.1" cy="21.1" r="1" d="M297.233 260.233A12.333 12.333 0 0 1 284.9 272.567A12.333 12.333 0 0 1 272.567 260.233A12.333 12.333 0 0 1 297.233 260.233z"/><path cx="22.2" cy="22.1" r="1.1" d="M287.367 272.567A13.567 13.567 0 0 1 273.8 286.133A13.567 13.567 0 0 1 260.233 272.567A13.567 13.567 0 0 1 287.367 272.567z"/><path cx="24" cy="22" r=".9" d="M307.1 271.333A11.1 11.1 0 0 1 296 282.433A11.1 11.1 0 0 1 284.9 271.333A11.1 11.1 0 0 1 307.1 271.333z"/><path cx="20.8" cy="22.2" r=".9" d="M267.633 273.8A11.1 11.1 0 0 1 256.533 284.9A11.1 11.1 0 0 1 245.433 273.8A11.1 11.1 0 0 1 267.633 273.8z"/></g><g fill="#7FCB6A"><path d="M136.9 271.333c4.933 -9.867 17.267 -17.267 32.067 -19.733 16.033 -2.467 32.067 0 43.167 7.4 -2.467 12.333 -11.1 22.2 -24.667 27.133 -17.267 6.167 -37 2.467 -50.567 -8.633z"/></g><g fill="#4EA94D"><path cx="12.7" cy="21.6" r=".8" d="M166.5 266.4A9.867 9.867 0 0 1 156.633 276.267A9.867 9.867 0 0 1 146.767 266.4A9.867 9.867 0 0 1 166.5 266.4z"/><path cx="14.2" cy="21.1" r=".7" d="M183.767 260.233A8.633 8.633 0 0 1 175.133 268.867A8.633 8.633 0 0 1 166.5 260.233A8.633 8.633 0 0 1 183.767 260.233z"/><path cx="14.9" cy="22.1" r=".7" d="M192.4 272.567A8.633 8.633 0 0 1 183.767 281.2A8.633 8.633 0 0 1 175.133 272.567A8.633 8.633 0 0 1 192.4 272.567z"/><path cx="13.4" cy="22.6" r=".7" d="M173.9 278.733A8.633 8.633 0 0 1 165.267 287.367A8.633 8.633 0 0 1 156.633 278.733A8.633 8.633 0 0 1 173.9 278.733z"/></g></svg>