<?xml version="1.0" encoding="UTF-8"?>

<svg xmlns="http://www.w3.org/2000/svg" viewBox="0 0 186 186" width="186" height="186">
  <g fill="#6FC276">
    <circle cx="58" cy="74" r="18"/>
    <circle cx="82" cy="62" r="20"/>
    <circle cx="108" cy="62" r="20"/>
    <circle cx="132" cy="74" r="18"/>
    <path d="M70 92c0-13.255 10.745-24 24-24s24 10.745 24 24H70z"/>
  </g>
  <g fill="#56A95E">
    <path d="M52 82c0-9.941 8.059-18 18-18 7.824 0 14.482 4.998 16.952 11.978A19.889 19.889 0 0 0 82 92H62c-5.523 0-10-4.477-10-10z"/>
    <path d="M104 92a19.889 19.889 0 0 0-4.952-16.022C101.518 68.998 108.176 64 116 64c9.941 0 18 8.059 18 18 0 5.523-4.477 10-10 10h-20z"/>
    <path d="M79 70c0-6.627 5.373-12 12-12h4c6.627 0 12 5.373 12 12v6H79v-6z"/>
  </g>
  <g fill="#E18A5A">
    <path d="M42 102c0-9.941 8.059-18 18-18h66c9.941 0 18 8.059 18 18v10c0 19.882-16.118 36-36 36H78c-19.882 0-36-16.118-36-36v-10z"/>
  </g>
  <g fill="#C96F45">
    <path d="M55 106h76c0 15.464-12.536 28-28 28H83c-15.464 0-28-12.536-28-28z"/>
    <path d="M48 100h90c3.314 0 6 2.686 6 6H42c0-3.314 2.686-6 6-6z"/>
  </g>
</svg>
